<svg xmlns="http://www.w3.org/2000/svg" xmlns:xlink="http://www.w3.org/1999/xlink" width="164" height="38" viewBox="0 0 164 38">
    <defs>
        <path id="a" d="M0 .208h35.038v34.139H0z"/>
    </defs>
    <g fill="none" fill-rule="evenodd" opacity=".5">
        <path fill="#161616" d="M30.92 37.454a.742.742 0 0 1-.693-.48c-.282-.757-.912-1.635-1.643-2.651-1.564-2.178-3.51-4.888-3.531-8.257a5.41 5.41 0 0 1 1.584-3.875 5.41 5.41 0 0 1 3.865-1.607 5.492 5.492 0 0 1 5.486 5.484v10.647a.737.737 0 0 1-.739.739h-4.33zM4.916 37.376a.74.74 0 0 1-.739-.738V19.71c0-4.326 3.52-7.845 7.844-7.845h.077a7.794 7.794 0 0 1 5.552 2.378 7.79 7.79 0 0 1 2.217 5.617c0 4.24 0 6.366-1.936 8.637-.482.567-1.09 1.147-1.732 1.76-1.83 1.748-3.903 3.728-4.303 6.486a.743.743 0 0 1-.732.632H4.916z"/>
        <g transform="translate(0 .346)">
            <mask id="b" fill="#fff">
                <use xlink:href="#a"/>
            </mask>
            <path fill="#161616" d="M26.156 21.368a6.084 6.084 0 0 1 4.346-1.809c1.795 0 3.408.777 4.536 2.006a8.823 8.823 0 0 0-6.44-4.83c-.71-.125-1.41-.248-2.044-.773-.646-.534-.91-1.202-1.163-1.849a14.305 14.305 0 0 0-7.289-7.76 1.418 1.418 0 0 1-.814-1.188A5.307 5.307 0 0 0 13.31.377 5.307 5.307 0 0 0 7.512 2.65c-.262.407-.708.65-1.192.65H4.93a.682.682 0 0 0-.682.616c-.06.602-.168 1.314-.512 2.029-.375.78-.792 1.063-1.368 1.455l-.113.077A5.3 5.3 0 0 0 0 11.074c.307.158.466.48.466.791a.884.884 0 0 1-.466.792 5.286 5.286 0 0 0 3.33 4.164c.18.07.336.175.468.302a8.464 8.464 0 0 1 2.227-3.813 8.515 8.515 0 0 1 6.079-2.467 8.464 8.464 0 0 1 6.032 2.583 8.464 8.464 0 0 1 2.408 6.102c0 4.255 0 6.602-2.097 9.063-.505.594-1.124 1.185-1.78 1.811-1.204 1.15-2.519 2.405-3.341 3.9.31.028.623.045.939.045H27.06c.311 0 .617-.019.92-.05-1.53-2.13-3.584-5.029-3.606-8.573a6.085 6.085 0 0 1 1.78-4.356" mask="url(#b)"/>
        </g>
        <text fill="#242B43" font-family="PingFangSC-Regular, PingFang SC" font-size="24">
            <tspan x="46" y="39">秘猿社团圈</tspan>
        </text>
    </g>
</svg>
